<svg width="106" height="26" viewBox="0 0 106 26" fill="none" xmlns="http://www.w3.org/2000/svg">
<path d="M53.2728 5.03338H54.3691L56.0079 1.17228H58.1744L58.5423 0.313843H53.1093L52.7451 1.17228H54.9116L53.2728 5.03338Z" fill="white"/>
<path fill-rule="evenodd" clip-rule="evenodd" d="M106.05 0.544246C105.916 0.324991 105.533 0.313843 105.236 0.313843H101.762C101.457 0.313843 101.074 0.324991 100.751 0.544246C100.39 0.789513 100.204 1.22802 100.119 1.43241L99.0636 3.91853C98.9781 4.1192 98.796 4.55771 98.9447 4.80669C99.0785 5.02595 99.4612 5.03338 99.7622 5.03338H103.237C103.538 5.03338 103.928 5.02223 104.248 4.80669C104.607 4.55865 104.793 4.12249 104.878 3.9208L105.935 1.43241C106.02 1.23174 106.206 0.789513 106.057 0.544246H106.05ZM100.056 4.17494L101.33 1.17599H104.95L103.679 4.17494H100.056Z" fill="white"/>
<path d="M78.7249 1.30978L75.2354 5.03338H74.0908L78.6543 0.313843H79.7171L80.308 5.03338H79.0296L78.7249 1.30978Z" fill="white"/>
<path d="M27.7652 10.0167H23.8744L22.1204 14.2197H25.974L27.7652 10.0167Z" fill="white"/>
<path fill-rule="evenodd" clip-rule="evenodd" d="M96.5624 4.11177C96.4584 4.34589 96.28 4.62088 95.9047 4.81413H95.9084C95.6408 4.95162 95.2655 5.03338 94.7824 5.03338H90.9771L92.9801 0.313843H97.1793C97.4432 0.313843 97.7033 0.388166 97.8037 0.544246C97.9337 0.73377 97.8408 1.01992 97.7516 1.22802L97.5064 1.80403C97.4543 1.92295 97.3317 2.16821 97.0753 2.34287C96.9118 2.45436 96.6145 2.57327 96.3543 2.59929C96.5847 2.61787 96.7594 2.71821 96.8374 2.8557C96.9155 2.97462 96.9564 3.18644 96.8189 3.50603L96.5624 4.11177ZM96.3023 1.08309H93.7493L93.2736 2.20537H95.8787C95.9679 2.20537 96.0756 2.19794 96.176 2.13477C96.2503 2.09017 96.3395 2.00842 96.3989 1.87092L96.5885 1.42126C96.6256 1.32836 96.6628 1.21687 96.5773 1.14627C96.503 1.08309 96.3581 1.08309 96.3023 1.08309ZM95.4179 2.97462H92.9503V2.97834L92.4412 4.17494H94.9088L94.9274 4.17499C95.043 4.17538 95.2443 4.17606 95.3956 4.06346C95.5108 3.9817 95.574 3.85535 95.6185 3.7513L95.7709 3.39455C95.8118 3.29421 95.8564 3.16415 95.8118 3.08239C95.7556 2.97345 95.5498 2.97418 95.4364 2.97458L95.4179 2.97462Z" fill="white"/>
<path d="M88.5468 1.54761L87.0678 5.03338H88.1678L90.1708 0.313843H89.2529L83.8422 3.79961L85.3212 0.313843H84.2249L82.2219 5.03338H83.1361L88.5468 1.54761Z" fill="white"/>
<path fill-rule="evenodd" clip-rule="evenodd" d="M59.3451 5.03338C59.0404 5.03338 58.6613 5.02595 58.5275 4.80669H58.5312C58.3789 4.55771 58.5647 4.1192 58.6502 3.91853L59.7055 1.43241C59.791 1.22802 59.9768 0.789513 60.3373 0.544246C60.6569 0.324991 61.0471 0.313843 61.3481 0.313843H64.8227C65.1274 0.313843 65.5065 0.324991 65.644 0.544246C65.7926 0.793229 65.6068 1.23174 65.5214 1.43241L64.465 3.9208C64.3791 4.12249 64.1933 4.55865 63.8342 4.80669C63.5109 5.02223 63.1244 5.03338 62.8197 5.03338H59.3451ZM63.2582 4.17494L64.5329 1.17599H60.9096L59.6349 4.17494H63.2582Z" fill="white"/>
<path d="M69.4346 1.17228H72.7271L71.0883 5.03338H72.1845L74.1913 0.313843H68.7025L66.6995 5.03338H67.7957L69.4346 1.17228Z" fill="white"/>
<path d="M62.2512 22.399L67.5802 9.89038H73.043L67.7103 22.399H62.2512Z" fill="white"/>
<path d="M77.532 19.0619L85.4177 9.89038H89.8623L79.9884 21.4217C79.9884 21.4217 79.2006 22.399 78.0374 22.399H72.4817C71.7274 22.399 70.9841 21.5666 71.4264 20.5409L75.9378 9.89038H81.4526L77.532 19.0619Z" fill="white"/>
<path d="M90.3714 11.481C91.0775 9.89043 92.6197 9.89043 93.3146 9.89043L93.322 9.88672H102.527L101.353 12.6367H95.9196C95.292 12.6367 95.1617 12.9447 95.1207 13.0416L94.4072 14.6917H100.483L99.3125 17.4082L93.2589 17.4008L92.5045 19.1623C92.471 19.2366 92.4264 19.389 92.5082 19.5153C92.5491 19.5822 92.6494 19.6602 92.8649 19.6602H98.3537L97.1831 22.3991H88.3609C87.0008 22.3991 86.0272 21.4886 86.6404 20.1991L90.3714 11.481Z" fill="white"/>
<path d="M37.3379 7.27047L32.5478 3.70667H42.7858C44.6365 3.70667 46.45 4.1749 47.5685 5.82117C48.8506 7.70526 48.0591 9.95355 47.3939 11.5701L44.5845 18.0436C43.3581 20.8048 42.4774 22.3953 36.8288 22.3953H24.6138L30.4259 8.76437H35.8849L31.6076 18.8278H35.4761C38.3413 18.8278 39.1031 18.0511 39.4524 17.2893L42.9345 9.17315C43.0385 8.93903 43.1575 8.27012 42.849 7.79817C42.6186 7.44885 42.1727 7.27047 41.5223 7.27047H37.3379Z" fill="white"/>
<path d="M51.1025 9.89038L51.1009 9.8941H51.0951L51.1025 9.89038Z" fill="white"/>
<path d="M51.1009 9.8941L45.7661 22.399H51.2252L55.3984 12.6403H57.3197C58.167 12.6292 58.5126 12.867 58.6241 13.1718C59.3116 15.067 53.5924 17.4788 53.5924 17.4788L62.0132 26.0037H62.8977L58.6909 17.9842C58.774 17.9407 58.9102 17.8824 59.0852 17.8075C60.3587 17.2624 63.6862 15.8381 63.5294 12.8224C63.4439 11.1353 62.0504 9.8941 58.2004 9.8941H51.1009Z" fill="white"/>
<path d="M3.76229 7.77587C4.90688 5.32692 7.06968 3.70667 12.0271 3.70667V3.71038H24.2978L19.2885 7.2779H11.6146C10.299 7.2779 9.33655 7.60864 8.75683 8.91302L5.43085 16.665C4.46837 18.8315 6.47138 18.8315 6.47138 18.8315H12.3912L14.4128 14.0896H9.73418L15.6206 9.89409H21.6705L16.3452 22.399H5.75788C2.46164 22.399 -2.06466 20.6747 1.28733 13.5397L3.76229 7.77587Z" fill="white"/>
</svg>
