<svg width="126" height="22" viewBox="0 0 126 22" fill="none" xmlns="http://www.w3.org/2000/svg">
<path d="M11.7474 0.00838673C6.85761 0.00838673 4.72723 1.61037 3.60332 4.01754L1.1626 9.69577C-2.14201 16.7327 2.32006 18.427 5.56596 18.427H15.9998L21.2503 6.0976H15.4043L9.49124 10.2326H13.9365L11.9403 14.9043H6.43824C6.43824 14.9043 4.46722 14.9043 5.4066 12.7655L8.68605 5.12467C9.25639 3.8414 10.2042 3.5143 11.5042 3.5143H19.0696L24.1775 0H11.7474V0.00838673Z" fill="white"/>
<path d="M35.6598 0.00842285C32.4977 0.00842285 31.3906 1.07362 30.4764 3.27949L26.5847 12.4385C24.6388 17.0767 27.457 18.4354 29.797 18.4354H39.6689L41.1619 14.9127H32.2797C31.6087 14.9127 31.3319 14.485 31.6255 13.7972L32.9339 10.6268H41.9754L43.3677 7.3809H34.3262L35.5004 4.62985C35.8024 3.90854 36.2804 3.52272 37.3792 3.52272H43.2335L48.2827 0.00842285H35.6598Z" fill="white"/>
<path d="M58.1547 6.10604L55.043 13.445L53.0971 7.07059C52.9042 6.24024 52.7029 6.10604 51.8139 6.10604H48.526C47.4832 6.10604 47.3661 6.38239 47.0335 7.16709C46.9997 7.24699 46.9636 7.33217 46.924 7.42286L42.2188 18.4354H45.7582L48.8951 11.0714L50.8577 17.3619C51.059 18.0496 51.2268 18.4354 52.3674 18.4354H55.303C56.4052 18.4354 56.5736 18.0691 56.9715 17.2035C57.0035 17.1337 57.0371 17.0607 57.0727 16.9844L61.6942 6.09766H58.1547V6.10604Z" fill="white"/>
<path d="M118.317 6.10596L113.553 11.4319L112.236 6.10596H107.346L109.653 14.6527L108.042 18.4354H113.024L114.643 14.6527L122.636 6.10596H118.317Z" fill="white"/>
<path d="M93.0711 9.17572C93.9183 7.18792 95.4531 6.10596 97.7932 6.10596L97.8016 6.11434H106.231L105.09 8.80668H100.117C98.4558 8.78152 98.1371 9.1254 97.6003 10.4003C97.0635 11.6752 96.4764 13.0675 95.9899 14.2165C95.5873 15.1727 96.0319 15.7682 96.879 15.7682H99.2862C100.066 15.7514 100.41 15.5333 100.746 14.8204L101.333 13.5036H99.0513L100.192 10.828H106.214L103.731 16.6572C103.32 17.6386 102.415 18.4437 100.997 18.4437H94.8325C92.0143 18.4521 89.8588 16.6237 91.2679 13.3778C91.9221 11.8681 92.3163 10.9455 93.0711 9.17572Z" fill="white"/>
<path d="M66.6845 6.10596C66.0051 6.10596 64.445 6.10596 63.7489 7.67439L60.0752 16.2714C59.4714 17.5379 60.4527 18.4354 61.7863 18.4354H70.4672L71.5994 15.7598H66.2148C65.9967 15.7598 65.9044 15.6843 65.8625 15.6172C65.7786 15.4914 65.829 15.3404 65.8625 15.2733L66.6174 13.5036H72.5724L73.7047 10.8364H67.7413L68.4458 9.20927C68.4877 9.10863 68.6136 8.81507 69.2342 8.81507H74.577L75.726 6.10596H66.6845Z" fill="white"/>
<path d="M73.168 18.4354L78.4017 6.11438H85.4051C89.2046 6.11438 90.5801 7.33893 90.664 8.99963C90.8184 11.9628 87.5564 13.3661 86.2917 13.9102C86.1138 13.9867 85.9754 14.0463 85.8916 14.0907L90.0349 22H89.1626L80.8592 13.5959C80.8592 13.5959 86.4955 11.2139 85.8161 9.34351C85.707 9.04156 85.2961 8.78155 84.5244 8.82349H82.6289L78.5359 18.4354H73.168Z" fill="white"/>
<path d="M21.6948 10.2493L23.4226 6.10596H27.2556L25.4859 10.2493H21.6948Z" fill="white"/>
<path d="M54.8836 3.59821L56.4101 0.00842285H55.7475L53.1726 2.18074L52.4009 0.00842285H51.7216L50.1951 3.59821H50.8744L51.8138 1.37556L51.9564 0.989742C51.9564 1.09039 51.9564 1.19104 52.0151 1.35879L52.6022 3.16206H52.77L54.8836 1.36717C54.9339 1.32524 55.1101 1.16588 55.2526 0.989742C55.1352 1.19943 55.0849 1.31685 55.0597 1.37556L54.1203 3.59821H54.8836Z" fill="white"/>
<path fill-rule="evenodd" clip-rule="evenodd" d="M57.7353 0.855545L57.7419 0.840693C57.8115 0.683523 57.9534 0.363249 58.2134 0.184557C58.4566 0.0168102 58.7501 0.00842285 58.985 0.00842285H61.627C61.8535 0.00842285 62.147 0.0084229 62.2477 0.184557C62.3651 0.369079 62.2225 0.704573 62.1554 0.855545L61.3502 2.75108L61.3436 2.76594C61.274 2.92311 61.1321 3.24338 60.8721 3.42207C60.6289 3.58982 60.3354 3.59821 60.1005 3.59821H57.4585C57.232 3.59821 56.9385 3.59821 56.8378 3.42207C56.7204 3.23755 56.863 2.90206 56.9301 2.75108L57.7353 0.855545ZM60.436 2.94399L61.4005 0.662636H58.6495L57.685 2.94399H60.436Z" fill="white"/>
<path d="M63.2793 3.59821H64.118L65.3594 0.662636H67.0117L67.2885 0.00842285H63.1535L62.8767 0.662636H64.529L63.2793 3.59821Z" fill="white"/>
<path fill-rule="evenodd" clip-rule="evenodd" d="M67.884 0.855545L67.8905 0.8407C67.9602 0.683534 68.1021 0.363252 68.362 0.184557C68.6053 0.0168102 68.8988 0.00842285 69.1337 0.00842285H71.7757C72.0021 0.00842285 72.2957 0.0084229 72.3963 0.184557C72.5138 0.369079 72.3712 0.704573 72.3041 0.855545L71.4989 2.75108L71.4923 2.76593C71.4227 2.9231 71.2807 3.24338 71.0208 3.42207C70.7776 3.58982 70.484 3.59821 70.2492 3.59821H67.6072C67.3807 3.59821 67.0872 3.59821 66.9865 3.42207C66.8691 3.23755 67.0117 2.90206 67.0788 2.75108L67.884 0.855545ZM70.5847 2.94399L71.5492 0.662636H68.7982L67.8336 2.94399H70.5847Z" fill="white"/>
<path fill-rule="evenodd" clip-rule="evenodd" d="M78.0408 0.159395C77.9401 0.0335851 77.7137 0.00842285 77.5375 0.00842285H74.4342L72.9077 3.59821H73.7465L74.3419 2.19752H76.5814C76.6736 2.19752 77.0175 2.18913 77.2691 2.02977C77.5208 1.87041 77.6466 1.59363 77.6801 1.50137L78.0156 0.704573C78.0911 0.536826 78.1666 0.310367 78.0408 0.159395ZM74.602 1.58524L75.0129 0.620699H76.8414C76.9756 0.620699 77.0594 0.637474 77.1014 0.67941C77.1685 0.746509 77.1265 0.847158 77.1014 0.905869L76.9336 1.30007C76.9169 1.3504 76.8665 1.45943 76.7491 1.52653C76.6736 1.56847 76.5814 1.58524 76.4388 1.58524H74.602Z" fill="white"/>
<path d="M79.8527 1.40072H82.4696L83.0567 0.00842285H83.8954L82.3689 3.59821H81.5302L82.1928 2.05493H79.576L78.9217 3.59821H78.083L79.6095 0.00842285H80.4398L79.8527 1.40072Z" fill="white"/>
<path fill-rule="evenodd" clip-rule="evenodd" d="M85.3027 0.8407L85.2961 0.855545L84.4909 2.75108C84.4238 2.90206 84.2812 3.23755 84.3986 3.42207C84.4993 3.59821 84.7928 3.59821 85.0193 3.59821H87.6613C87.8961 3.59821 88.1897 3.58982 88.4329 3.42207C88.6928 3.24338 88.8348 2.9231 88.9044 2.76593L88.911 2.75108L89.7162 0.855545C89.7833 0.704573 89.9259 0.369079 89.8085 0.184557C89.7078 0.0084229 89.4143 0.00842285 89.1878 0.00842285H86.5458C86.3109 0.00842285 86.0174 0.0168102 85.7741 0.184557C85.5142 0.363252 85.3723 0.683534 85.3027 0.8407ZM88.9613 0.662636L87.9968 2.94399H85.2457L86.2103 0.662636H88.9613Z" fill="white"/>
<path d="M95.5201 0.00842285L95.2601 0.620699H92.4252L92.0897 1.42588H93.742L93.482 2.03816H91.8297L91.4355 2.94399H94.3124L94.0356 3.59821H90.3284L91.8549 0.00842285H95.5201Z" fill="white"/>
<path d="M101.895 3.59821L103.421 0.00842285H102.758L100.184 2.18074L99.4119 0.00842285H98.7326L97.2061 3.59821H97.8854L98.8248 1.37556L98.9674 0.989742C98.9674 1.09039 98.9674 1.19104 99.0261 1.35879L99.6132 3.16206H99.781L101.895 1.36717C101.945 1.32524 102.121 1.16588 102.264 0.989742C102.146 1.19932 102.096 1.31673 102.071 1.37547L101.131 3.59821H101.895Z" fill="white"/>
<path fill-rule="evenodd" clip-rule="evenodd" d="M107.338 0.00842285L107.875 3.59821H106.935L106.843 2.81818H104.562L103.824 3.59821H102.985L106.541 0.00842285H107.338ZM106.768 2.16397L106.608 0.704573L105.182 2.16397H106.768Z" fill="white"/>
<path d="M109.93 2.94396L110.894 0.6626H113.15L112.865 1.34197L113.754 1.20778L113.905 0.855509L113.907 0.852313C113.974 0.691704 114.114 0.359431 113.998 0.176134C113.897 0 113.603 0 113.377 0H111.238C111.012 0 110.71 0.00838737 110.467 0.176134C110.207 0.362776 110.065 0.682887 109.995 0.84022L109.988 0.855509L109.183 2.75105C109.116 2.90202 108.974 3.23751 109.091 3.42204C109.192 3.59817 109.485 3.59817 109.712 3.59817H111.85C112.085 3.59817 112.379 3.58978 112.622 3.42204C112.882 3.24333 113.024 2.92303 113.094 2.76587L113.1 2.75105L113.276 2.34007L112.513 2.16393L112.178 2.94396H109.93Z" fill="white"/>
<path d="M117.864 0.00842285L118.309 3.59821H117.336L117.109 0.771672L114.45 3.59821H113.586L117.05 0.00842285H117.864Z" fill="white"/>
<path fill-rule="evenodd" clip-rule="evenodd" d="M120.571 0.840684L120.565 0.855545L119.759 2.75108C119.692 2.90206 119.55 3.23755 119.667 3.42207C119.768 3.59821 120.061 3.59821 120.288 3.59821H122.93C123.165 3.59821 123.458 3.58982 123.701 3.42207C123.961 3.24337 124.103 2.92307 124.173 2.76591L124.18 2.75108L124.985 0.855545C125.052 0.704573 125.194 0.369079 125.077 0.184557C124.976 0.0084229 124.683 0.00842285 124.456 0.00842285H121.814C121.588 0.00842285 121.286 0.0168102 121.043 0.184557C120.783 0.363245 120.641 0.683512 120.571 0.840684ZM124.23 0.662636L123.265 2.94399H120.514L121.479 0.662636H124.23Z" fill="white"/>
</svg>
